<svg width="25" height="25" viewBox="0 0 25 25" fill="none" xmlns="http://www.w3.org/2000/svg">
<path d="M22.6562 0.390625H11.7188C10.6418 0.390625 9.76562 1.2668 9.76562 2.34375V6.64062H1.5625C0.916406 6.64062 0.390625 7.16641 0.390625 7.8125V23.4375C0.390625 24.0836 0.916406 24.6094 1.5625 24.6094H21.875C22.5211 24.6094 23.0469 24.0836 23.0469 23.4375V8.94492C23.9371 8.76328 24.6094 7.97461 24.6094 7.03125V2.34375C24.6094 1.2668 23.7332 0.390625 22.6562 0.390625ZM1.5625 7.42188H9.80508C9.98672 8.31211 10.7754 8.98438 11.7188 8.98438H13.0984L13.7496 9.76562H1.17188V7.8125C1.17188 7.59727 1.34727 7.42188 1.5625 7.42188ZM21.875 23.8281H1.5625C1.34727 23.8281 1.17188 23.6531 1.17188 23.4375V10.5469H14.4004L14.6949 10.9004C14.9215 11.1723 15.2543 11.3281 15.6082 11.3281C16.1199 11.3281 16.5531 11.0012 16.7203 10.5469H22.2656V23.4375C22.2656 23.6531 22.0902 23.8281 21.875 23.8281ZM16.7969 9.76562V8.98438H22.2656V9.76562H16.7969ZM23.8281 7.03125C23.8281 7.67734 23.3023 8.20312 22.6562 8.20312H16.0156V10.1395C16.0156 10.3641 15.8328 10.5469 15.6082 10.5469C15.4867 10.5469 15.3727 10.4934 15.2949 10.4004L13.4641 8.20312H11.7188C11.0727 8.20312 10.5469 7.67734 10.5469 7.03125V2.34375C10.5469 1.69766 11.0727 1.17188 11.7188 1.17188H22.6562C23.3023 1.17188 23.8281 1.69766 23.8281 2.34375V7.03125Z" fill="#17B2A6"/>
</svg>
