<svg width="22" height="20" viewBox="0 0 22 20" fill="none" xmlns="http://www.w3.org/2000/svg">
<path d="M20.7109 0.0742188H1.28906C0.578273 0.0742188 0 0.652492 0 1.36328V14.168C0 14.8788 0.578273 15.457 1.28906 15.457H7.60547V18.6367H4.125C3.76905 18.6367 3.48047 18.9253 3.48047 19.2812C3.48047 19.6372 3.76905 19.9258 4.125 19.9258H17.875C18.231 19.9258 18.5195 19.6372 18.5195 19.2812C18.5195 18.9253 18.231 18.6367 17.875 18.6367H14.3945V15.457H20.7109C21.4217 15.457 22 14.8788 22 14.168V1.36328C22 0.652492 21.4217 0.0742188 20.7109 0.0742188ZM13.1055 18.6367H8.89453V15.457H13.1055V18.6367ZM20.7109 14.168C20.1456 14.168 1.74213 14.168 1.28906 14.168V1.36328H20.7109C20.7118 14.4461 20.7152 14.168 20.7109 14.168Z" fill="#4BC1B8"/>
</svg>
