<svg width="18" height="19" viewBox="0 0 18 19" fill="none" xmlns="http://www.w3.org/2000/svg">
<rect x="2.5" y="2.5" width="13" height="16" stroke="white"/>
<path d="M2 1C2 0.447715 2.44772 0 3 0H4V2H2V1Z" fill="white"/>
<path d="M6 0H8V2H6V0Z" fill="white"/>
<path d="M10 0H12V2H10V0Z" fill="white"/>
<path d="M16 1C16 0.447715 15.5523 0 15 0H14V2H16V1Z" fill="white"/>
<line x1="4.5" y1="4.5" x2="11.5" y2="4.5" stroke="white" stroke-linecap="round"/>
<line x1="4.5" y1="7.5" x2="13.5" y2="7.5" stroke="white" stroke-linecap="round"/>
<line x1="4.5" y1="10.5" x2="10.5" y2="10.5" stroke="white" stroke-linecap="round"/>
<line x1="4.5" y1="13.5" x2="13.5" y2="13.5" stroke="white" stroke-linecap="round"/>
<line x1="4.5" y1="16.5" x2="13.5" y2="16.5" stroke="white" stroke-linecap="round"/>
</svg>
