<svg width="23" height="17" viewBox="0 0 23 17" fill="none" xmlns="http://www.w3.org/2000/svg">
<path d="M7.75 12.3117C7.75 10.8599 8.81038 9.62565 10.2457 9.40694L14.0104 8.83326C14.3349 8.78381 14.6651 8.78381 14.9896 8.83326L18.7543 9.40694C20.1896 9.62565 21.25 10.8598 21.25 12.3117C21.25 13.9345 19.9345 15.25 18.3117 15.25H10.6883C9.06552 15.25 7.75 13.9345 7.75 12.3117Z" fill="white" stroke="#4F4F4F" stroke-width="1.5"/>
<path d="M17.6501 3.59671C17.6501 5.28549 16.5052 6.44342 15.3334 6.44342C14.1616 6.44342 13.0167 5.28549 13.0167 3.59671C13.0167 1.90792 14.1616 0.75 15.3334 0.75C16.5052 0.75 17.6501 1.90792 17.6501 3.59671Z" fill="white" stroke="#4F4F4F" stroke-width="1.5"/>
<path d="M0.75 12.3117C0.75 10.8599 1.81038 9.62565 3.24567 9.40694L7.01041 8.83326C7.33493 8.78381 7.66507 8.78381 7.98959 8.83326L11.7543 9.40694C13.1896 9.62565 14.25 10.8598 14.25 12.3117C14.25 13.9345 12.9345 15.25 11.3117 15.25H3.6883C2.06552 15.25 0.75 13.9345 0.75 12.3117Z" fill="white" stroke="#4F4F4F" stroke-width="1.5"/>
<path d="M9.98343 3.59671C9.98343 5.28549 8.83854 6.44342 7.66677 6.44342C6.49499 6.44342 5.3501 5.28549 5.3501 3.59671C5.3501 1.90792 6.49499 0.75 7.66677 0.75C8.83854 0.75 9.98343 1.90792 9.98343 3.59671Z" fill="white" stroke="#4F4F4F" stroke-width="1.5"/>
</svg>
