<svg width="22" height="22" viewBox="0 0 22 22" fill="none" xmlns="http://www.w3.org/2000/svg">
<path d="M11.7188 1.125H14.4531V4.25C14.4531 4.3536 14.4943 4.45296 14.5675 4.52621C14.6408 4.59947 14.7401 4.64062 14.8438 4.64062H17.9688C18.0723 4.64062 18.1717 4.59947 18.245 4.52621C18.3182 4.45296 18.3594 4.3536 18.3594 4.25V1.125H21.0938V5.03125H21.875V0.734375C21.875 0.630775 21.8338 0.531418 21.7606 0.458161C21.6873 0.384905 21.588 0.34375 21.4844 0.34375H1.17188C1.06827 0.34375 0.968918 0.384905 0.895661 0.458161C0.822405 0.531418 0.78125 0.630775 0.78125 0.734375V21.0469C0.78125 21.1505 0.822405 21.2498 0.895661 21.3231C0.968918 21.3963 1.06827 21.4375 1.17188 21.4375H13.2812V20.6562H11.7188V11.2812H13.2812V10.5H11.7188V1.125ZM17.5781 3.85938H15.2344V1.125H17.5781V3.85938ZM5.07812 1.125H7.42188V3.85938H5.07812V1.125ZM4.29688 1.125V4.25C4.29688 4.3536 4.33803 4.45296 4.41129 4.52621C4.48454 4.59947 4.5839 4.64062 4.6875 4.64062H7.8125C7.9161 4.64062 8.01546 4.59947 8.08871 4.52621C8.16197 4.45296 8.20312 4.3536 8.20312 4.25V1.125H10.9375V10.5H1.5625V1.125H4.29688ZM5.07812 11.2812H7.42188V14.0156H5.07812V11.2812ZM10.9375 20.6562H1.5625V11.2812H4.29688V14.4062C4.29688 14.5099 4.33803 14.6092 4.41129 14.6825C4.48454 14.7557 4.5839 14.7969 4.6875 14.7969H7.8125C7.9161 14.7969 8.01546 14.7557 8.08871 14.6825C8.16197 14.6092 8.20312 14.5099 8.20312 14.4062V11.2812H10.9375V20.6562Z" fill="#17B2A6"/>
</svg>
