<svg width="21" height="25" viewBox="0 0 21 25" fill="none" xmlns="http://www.w3.org/2000/svg">
<path d="M17.5847 1.89702L15.0255 0.422266L12.4663 1.89702L9.90708 0.422266L7.34785 1.89697L4.05566 0V19.6586H0.123047V22.3007C0.123047 23.7892 1.33394 25 2.82236 25H18.1776C19.666 25 20.8769 23.7892 20.8769 22.3007V0L17.5847 1.89702ZM2.82236 23.5341C2.14229 23.5341 1.58896 22.9809 1.58896 22.3007V21.1246H15.4783V22.3007C15.4783 22.7448 15.5861 23.1642 15.7769 23.5341H2.82236ZM18.1775 23.5341C17.4975 23.5341 16.9442 22.9809 16.9442 22.3007V19.6586H5.52158V2.53652L7.3478 3.58882L9.90703 2.11421L12.4663 3.58882L15.0255 2.11416L17.5847 3.58882L19.411 2.53652V22.3007C19.4109 22.9809 18.8577 23.5341 18.1775 23.5341Z" fill="#1EB2A6"/>
</svg>
