<svg width="40" height="36" viewBox="0 0 40 36" fill="none" xmlns="http://www.w3.org/2000/svg">
<path fill-rule="evenodd" clip-rule="evenodd" d="M30.88 6.47281C30.96 6.61265 31.1 6.71254 31.28 6.71254C36.08 6.71254 40 10.6282 40 15.4229V27.2897C40 32.0844 36.08 36 31.28 36H8.72C3.9 36 0 32.0844 0 27.2897V15.4229C0 10.6282 3.9 6.71254 8.72 6.71254C8.88 6.71254 9.04 6.63263 9.1 6.47281L9.22 6.23307C9.28896 6.08794 9.35973 5.93886 9.43158 5.78753C9.94322 4.70984 10.5093 3.51758 10.86 2.81687C11.78 1.01887 13.34 0.0199778 15.28 0H24.7C26.64 0.0199778 28.22 1.01887 29.14 2.81687C29.455 3.44615 29.9349 4.45979 30.3974 5.43678C30.4929 5.63841 30.5876 5.83849 30.68 6.0333L30.88 6.47281ZM29.4199 14.1442C29.4199 15.143 30.2199 15.9422 31.2199 15.9422C32.2199 15.9422 33.0399 15.143 33.0399 14.1442C33.0399 13.1453 32.2199 12.3262 31.2199 12.3262C30.2199 12.3262 29.4199 13.1453 29.4199 14.1442ZM16.5392 17.2411C17.4792 16.3022 18.6992 15.8027 19.9992 15.8027C21.2992 15.8027 22.5192 16.3022 23.4392 17.2212C24.3592 18.1401 24.8592 19.3588 24.8592 20.6573C24.8392 23.3344 22.6792 25.5119 19.9992 25.5119C18.6992 25.5119 17.4792 25.0125 16.5592 24.0935C15.6392 23.1745 15.1392 21.9559 15.1392 20.6573V20.6374C15.1192 19.3788 15.6192 18.1601 16.5392 17.2411ZM25.539 26.2108C24.119 27.6292 22.159 28.5082 19.999 28.5082C17.899 28.5082 15.939 27.6891 14.439 26.2108C12.959 24.7124 12.139 22.7546 12.139 20.6569C12.119 18.5792 12.939 16.6214 14.419 15.1231C15.919 13.6248 17.899 12.8057 19.999 12.8057C22.099 12.8057 24.079 13.6248 25.559 15.1031C27.039 16.6014 27.859 18.5792 27.859 20.6569C27.839 22.8345 26.959 24.7923 25.539 26.2108Z" fill="#3D3D3D"/>
</svg>
