<svg width="60" height="60" viewBox="0 0 60 60" fill="none" xmlns="http://www.w3.org/2000/svg">
<circle cx="30" cy="30" r="30" fill="#EB5757" fill-opacity="0.1"/>
<path d="M25.75 34.3117C25.75 32.8599 26.8104 31.6256 28.2457 31.4069L32.0104 30.8333C32.3349 30.7838 32.6651 30.7838 32.9896 30.8333L36.7543 31.4069C38.1896 31.6256 39.25 32.8598 39.25 34.3117C39.25 35.9345 37.9345 37.25 36.3117 37.25H28.6883C27.0655 37.25 25.75 35.9345 25.75 34.3117Z" fill="#FDEEEE" stroke="#EB5757" stroke-width="1.5"/>
<path d="M35.6501 25.5967C35.6501 27.2855 34.5052 28.4434 33.3334 28.4434C32.1616 28.4434 31.0167 27.2855 31.0167 25.5967C31.0167 23.9079 32.1616 22.75 33.3334 22.75C34.5052 22.75 35.6501 23.9079 35.6501 25.5967Z" fill="#FDEEEE" stroke="#EB5757" stroke-width="1.5"/>
<path d="M18.75 34.3117C18.75 32.8599 19.8104 31.6256 21.2457 31.4069L25.0104 30.8333C25.3349 30.7838 25.6651 30.7838 25.9896 30.8333L29.7543 31.4069C31.1896 31.6256 32.25 32.8598 32.25 34.3117C32.25 35.9345 30.9345 37.25 29.3117 37.25H21.6883C20.0655 37.25 18.75 35.9345 18.75 34.3117Z" fill="#FDEEEE" stroke="#EB5757" stroke-width="1.5"/>
<path d="M27.9834 25.5967C27.9834 27.2855 26.8385 28.4434 25.6667 28.4434C24.4949 28.4434 23.35 27.2855 23.35 25.5967C23.35 23.9079 24.4949 22.75 25.6667 22.75C26.8385 22.75 27.9834 23.9079 27.9834 25.5967Z" fill="#FDEEEE" stroke="#EB5757" stroke-width="1.5"/>
</svg>
