<svg width="190" height="147" viewBox="0 0 190 147" fill="none" xmlns="http://www.w3.org/2000/svg">
<rect x="0.5" y="0.5" width="189" height="146" rx="9.5" fill="#F8F7F7" stroke="#A4A4A4" stroke-dasharray="5 5"/>
<path fill-rule="evenodd" clip-rule="evenodd" d="M105.88 48.4728C105.96 48.6127 106.1 48.7125 106.28 48.7125C111.08 48.7125 115 52.6282 115 57.4229V69.2897C115 74.0844 111.08 78 106.28 78H83.72C78.9 78 75 74.0844 75 69.2897V57.4229C75 52.6282 78.9 48.7125 83.72 48.7125C83.88 48.7125 84.04 48.6326 84.1 48.4728L84.22 48.2331C84.289 48.0879 84.3597 47.9389 84.4316 47.7875C84.9432 46.7098 85.5093 45.5176 85.86 44.8169C86.78 43.0189 88.34 42.02 90.28 42H99.7C101.64 42.02 103.22 43.0189 104.14 44.8169C104.455 45.4462 104.935 46.4598 105.397 47.4368C105.493 47.6384 105.588 47.8385 105.68 48.0333L105.88 48.4728ZM104.42 56.1442C104.42 57.143 105.22 57.9422 106.22 57.9422C107.22 57.9422 108.04 57.143 108.04 56.1442C108.04 55.1453 107.22 54.3262 106.22 54.3262C105.22 54.3262 104.42 55.1453 104.42 56.1442ZM91.5392 59.2411C92.4792 58.3022 93.6992 57.8027 94.9992 57.8027C96.2992 57.8027 97.5192 58.3022 98.4392 59.2212C99.3592 60.1401 99.8592 61.3588 99.8592 62.6573C99.8392 65.3344 97.6792 67.5119 94.9992 67.5119C93.6992 67.5119 92.4792 67.0125 91.5592 66.0935C90.6392 65.1745 90.1392 63.9559 90.1392 62.6573V62.6374C90.1192 61.3788 90.6192 60.1601 91.5392 59.2411ZM100.539 68.2108C99.119 69.6292 97.159 70.5082 94.999 70.5082C92.899 70.5082 90.939 69.6891 89.439 68.2108C87.959 66.7124 87.139 64.7546 87.139 62.6569C87.119 60.5792 87.939 58.6214 89.419 57.1231C90.919 55.6248 92.899 54.8057 94.999 54.8057C97.099 54.8057 99.079 55.6248 100.559 57.1031C102.039 58.6014 102.859 60.5792 102.859 62.6569C102.839 64.8345 101.959 66.7923 100.539 68.2108Z" fill="#4F4F4F"/>
<path d="M54.578 111.168C53.906 111.168 53.2947 111.037 52.744 110.776C52.2027 110.505 51.7687 110.09 51.442 109.53C51.1153 108.97 50.952 108.256 50.952 107.388V101.2H52.128V107.402C52.128 108.354 52.3567 109.045 52.814 109.474C53.2713 109.903 53.8687 110.118 54.606 110.118C55.3433 110.118 55.936 109.903 56.384 109.474C56.832 109.045 57.056 108.354 57.056 107.402V101.2H58.232V107.388C58.232 108.256 58.0687 108.97 57.742 109.53C57.4153 110.09 56.9767 110.505 56.426 110.776C55.8753 111.037 55.2593 111.168 54.578 111.168ZM60.1535 114.08V104.056H61.2175L61.3295 105.204C61.5535 104.868 61.8708 104.565 62.2815 104.294C62.7015 104.023 63.2335 103.888 63.8775 103.888C64.5682 103.888 65.1702 104.047 65.6835 104.364C66.1968 104.681 66.5935 105.115 66.8735 105.666C67.1628 106.217 67.3075 106.842 67.3075 107.542C67.3075 108.242 67.1628 108.867 66.8735 109.418C66.5935 109.959 66.1922 110.389 65.6695 110.706C65.1562 111.014 64.5542 111.168 63.8635 111.168C63.2942 111.168 62.7855 111.051 62.3375 110.818C61.8988 110.585 61.5628 110.258 61.3295 109.838V114.08H60.1535ZM63.7375 110.146C64.2042 110.146 64.6148 110.039 64.9695 109.824C65.3242 109.6 65.6042 109.292 65.8095 108.9C66.0148 108.508 66.1175 108.051 66.1175 107.528C66.1175 107.005 66.0148 106.548 65.8095 106.156C65.6042 105.764 65.3242 105.461 64.9695 105.246C64.6148 105.022 64.2042 104.91 63.7375 104.91C63.2708 104.91 62.8602 105.022 62.5055 105.246C62.1508 105.461 61.8708 105.764 61.6655 106.156C61.4602 106.548 61.3575 107.005 61.3575 107.528C61.3575 108.051 61.4602 108.508 61.6655 108.9C61.8708 109.292 62.1508 109.6 62.5055 109.824C62.8602 110.039 63.2708 110.146 63.7375 110.146ZM68.9445 111V100.92H70.1205V111H68.9445ZM75.212 111.168C74.5587 111.168 73.9707 111.019 73.448 110.72C72.9254 110.421 72.51 110.001 72.202 109.46C71.9034 108.909 71.754 108.265 71.754 107.528C71.754 106.791 71.908 106.151 72.216 105.61C72.524 105.059 72.9394 104.635 73.462 104.336C73.994 104.037 74.5867 103.888 75.24 103.888C75.8934 103.888 76.4814 104.037 77.004 104.336C77.5267 104.635 77.9374 105.059 78.236 105.61C78.544 106.151 78.698 106.791 78.698 107.528C78.698 108.265 78.544 108.909 78.236 109.46C77.928 110.001 77.508 110.421 76.976 110.72C76.4534 111.019 75.8654 111.168 75.212 111.168ZM75.212 110.16C75.6134 110.16 75.9867 110.062 76.332 109.866C76.6774 109.67 76.9574 109.376 77.172 108.984C77.3867 108.592 77.494 108.107 77.494 107.528C77.494 106.949 77.3867 106.464 77.172 106.072C76.9667 105.68 76.6914 105.386 76.346 105.19C76.0007 104.994 75.632 104.896 75.24 104.896C74.8387 104.896 74.4654 104.994 74.12 105.19C73.7747 105.386 73.4947 105.68 73.28 106.072C73.0654 106.464 72.958 106.949 72.958 107.528C72.958 108.107 73.0654 108.592 73.28 108.984C73.4947 109.376 73.77 109.67 74.106 109.866C74.4514 110.062 74.82 110.16 75.212 110.16ZM82.6432 111.168C82.0645 111.168 81.5839 111.07 81.2012 110.874C80.8185 110.678 80.5339 110.417 80.3472 110.09C80.1605 109.763 80.0672 109.409 80.0672 109.026C80.0672 108.317 80.3379 107.771 80.8792 107.388C81.4205 107.005 82.1579 106.814 83.0912 106.814H84.9672V106.73C84.9672 106.123 84.8085 105.666 84.4912 105.358C84.1739 105.041 83.7492 104.882 83.2172 104.882C82.7599 104.882 82.3632 104.999 82.0272 105.232C81.7005 105.456 81.4952 105.787 81.4112 106.226H80.2072C80.2539 105.722 80.4219 105.297 80.7112 104.952C81.0099 104.607 81.3785 104.345 81.8172 104.168C82.2559 103.981 82.7225 103.888 83.2172 103.888C84.1879 103.888 84.9159 104.149 85.4012 104.672C85.8959 105.185 86.1432 105.871 86.1432 106.73V111H85.0932L85.0232 109.754C84.8272 110.146 84.5379 110.482 84.1552 110.762C83.7819 111.033 83.2779 111.168 82.6432 111.168ZM82.8252 110.174C83.2732 110.174 83.6559 110.057 83.9732 109.824C84.2999 109.591 84.5472 109.287 84.7152 108.914C84.8832 108.541 84.9672 108.149 84.9672 107.738V107.724H83.1892C82.4985 107.724 82.0085 107.845 81.7192 108.088C81.4392 108.321 81.2992 108.615 81.2992 108.97C81.2992 109.334 81.4299 109.628 81.6912 109.852C81.9619 110.067 82.3399 110.174 82.8252 110.174ZM91.0574 111.168C90.3667 111.168 89.7601 111.009 89.2374 110.692C88.7241 110.375 88.3227 109.941 88.0334 109.39C87.7534 108.839 87.6134 108.214 87.6134 107.514C87.6134 106.814 87.7581 106.193 88.0474 105.652C88.3367 105.101 88.7381 104.672 89.2514 104.364C89.7647 104.047 90.3714 103.888 91.0714 103.888C91.6407 103.888 92.1447 104.005 92.5834 104.238C93.0221 104.471 93.3627 104.798 93.6054 105.218V100.92H94.7814V111H93.7174L93.6054 109.852C93.3814 110.188 93.0594 110.491 92.6394 110.762C92.2194 111.033 91.6921 111.168 91.0574 111.168ZM91.1834 110.146C91.6501 110.146 92.0607 110.039 92.4154 109.824C92.7794 109.6 93.0594 109.292 93.2554 108.9C93.4607 108.508 93.5634 108.051 93.5634 107.528C93.5634 107.005 93.4607 106.548 93.2554 106.156C93.0594 105.764 92.7794 105.461 92.4154 105.246C92.0607 105.022 91.6501 104.91 91.1834 104.91C90.7261 104.91 90.3154 105.022 89.9514 105.246C89.5967 105.461 89.3167 105.764 89.1114 106.156C88.9154 106.548 88.8174 107.005 88.8174 107.528C88.8174 108.051 88.9154 108.508 89.1114 108.9C89.3167 109.292 89.5967 109.6 89.9514 109.824C90.3154 110.039 90.7261 110.146 91.1834 110.146ZM100.474 111V101.2H101.65V111H100.474ZM103.657 111V104.056H104.721L104.805 105.064C105.029 104.691 105.328 104.401 105.701 104.196C106.075 103.991 106.495 103.888 106.961 103.888C107.512 103.888 107.983 104 108.375 104.224C108.777 104.448 109.085 104.789 109.299 105.246C109.542 104.826 109.873 104.495 110.293 104.252C110.723 104.009 111.185 103.888 111.679 103.888C112.51 103.888 113.173 104.14 113.667 104.644C114.162 105.139 114.409 105.904 114.409 106.94V111H113.247V107.066C113.247 106.347 113.103 105.806 112.813 105.442C112.524 105.078 112.109 104.896 111.567 104.896C111.007 104.896 110.541 105.115 110.167 105.554C109.803 105.983 109.621 106.599 109.621 107.402V111H108.445V107.066C108.445 106.347 108.301 105.806 108.011 105.442C107.722 105.078 107.307 104.896 106.765 104.896C106.215 104.896 105.753 105.115 105.379 105.554C105.015 105.983 104.833 106.599 104.833 107.402V111H103.657ZM118.491 111.168C117.912 111.168 117.432 111.07 117.049 110.874C116.666 110.678 116.382 110.417 116.195 110.09C116.008 109.763 115.915 109.409 115.915 109.026C115.915 108.317 116.186 107.771 116.727 107.388C117.268 107.005 118.006 106.814 118.939 106.814H120.815V106.73C120.815 106.123 120.656 105.666 120.339 105.358C120.022 105.041 119.597 104.882 119.065 104.882C118.608 104.882 118.211 104.999 117.875 105.232C117.548 105.456 117.343 105.787 117.259 106.226H116.055C116.102 105.722 116.27 105.297 116.559 104.952C116.858 104.607 117.226 104.345 117.665 104.168C118.104 103.981 118.57 103.888 119.065 103.888C120.036 103.888 120.764 104.149 121.249 104.672C121.744 105.185 121.991 105.871 121.991 106.73V111H120.941L120.871 109.754C120.675 110.146 120.386 110.482 120.003 110.762C119.63 111.033 119.126 111.168 118.491 111.168ZM118.673 110.174C119.121 110.174 119.504 110.057 119.821 109.824C120.148 109.591 120.395 109.287 120.563 108.914C120.731 108.541 120.815 108.149 120.815 107.738V107.724H119.037C118.346 107.724 117.856 107.845 117.567 108.088C117.287 108.321 117.147 108.615 117.147 108.97C117.147 109.334 117.278 109.628 117.539 109.852C117.81 110.067 118.188 110.174 118.673 110.174ZM126.499 108.816C126.107 108.816 125.748 108.765 125.421 108.662L124.721 109.32C124.824 109.395 124.95 109.46 125.099 109.516C125.258 109.563 125.482 109.609 125.771 109.656C126.06 109.693 126.466 109.735 126.989 109.782C127.922 109.847 128.59 110.062 128.991 110.426C129.392 110.79 129.593 111.266 129.593 111.854C129.593 112.255 129.481 112.638 129.257 113.002C129.042 113.366 128.706 113.665 128.249 113.898C127.801 114.131 127.222 114.248 126.513 114.248C125.888 114.248 125.332 114.164 124.847 113.996C124.362 113.837 123.984 113.59 123.713 113.254C123.442 112.927 123.307 112.512 123.307 112.008C123.307 111.747 123.377 111.462 123.517 111.154C123.657 110.855 123.918 110.571 124.301 110.3C124.096 110.216 123.918 110.127 123.769 110.034C123.629 109.931 123.498 109.819 123.377 109.698V109.376L124.567 108.2C124.016 107.733 123.741 107.117 123.741 106.352C123.741 105.895 123.848 105.479 124.063 105.106C124.278 104.733 124.59 104.439 125.001 104.224C125.412 104 125.911 103.888 126.499 103.888C126.9 103.888 127.264 103.944 127.591 104.056H130.153V104.938L128.851 104.994C129.122 105.386 129.257 105.839 129.257 106.352C129.257 106.809 129.145 107.225 128.921 107.598C128.706 107.971 128.394 108.27 127.983 108.494C127.582 108.709 127.087 108.816 126.499 108.816ZM126.499 107.85C126.994 107.85 127.386 107.724 127.675 107.472C127.974 107.211 128.123 106.837 128.123 106.352C128.123 105.876 127.974 105.512 127.675 105.26C127.386 104.999 126.994 104.868 126.499 104.868C125.995 104.868 125.594 104.999 125.295 105.26C125.006 105.512 124.861 105.876 124.861 106.352C124.861 106.837 125.006 107.211 125.295 107.472C125.594 107.724 125.995 107.85 126.499 107.85ZM124.455 111.896C124.455 112.363 124.651 112.708 125.043 112.932C125.435 113.165 125.925 113.282 126.513 113.282C127.092 113.282 127.554 113.156 127.899 112.904C128.254 112.652 128.431 112.316 128.431 111.896C128.431 111.597 128.31 111.336 128.067 111.112C127.824 110.897 127.376 110.771 126.723 110.734C126.21 110.697 125.766 110.65 125.393 110.594C125.01 110.799 124.758 111.019 124.637 111.252C124.516 111.495 124.455 111.709 124.455 111.896ZM134.328 111.168C133.666 111.168 133.078 111.019 132.564 110.72C132.051 110.412 131.645 109.987 131.346 109.446C131.057 108.905 130.912 108.265 130.912 107.528C130.912 106.8 131.057 106.165 131.346 105.624C131.636 105.073 132.037 104.649 132.55 104.35C133.073 104.042 133.675 103.888 134.356 103.888C135.028 103.888 135.607 104.042 136.092 104.35C136.587 104.649 136.965 105.045 137.226 105.54C137.488 106.035 137.618 106.567 137.618 107.136C137.618 107.239 137.614 107.341 137.604 107.444C137.604 107.547 137.604 107.663 137.604 107.794H132.074C132.102 108.326 132.224 108.769 132.438 109.124C132.662 109.469 132.938 109.731 133.264 109.908C133.6 110.085 133.955 110.174 134.328 110.174C134.814 110.174 135.22 110.062 135.546 109.838C135.873 109.614 136.111 109.311 136.26 108.928H137.422C137.236 109.572 136.876 110.109 136.344 110.538C135.822 110.958 135.15 111.168 134.328 111.168ZM134.328 104.882C133.768 104.882 133.269 105.055 132.83 105.4C132.401 105.736 132.154 106.231 132.088 106.884H136.456C136.428 106.259 136.214 105.769 135.812 105.414C135.411 105.059 134.916 104.882 134.328 104.882Z" fill="black"/>
</svg>
