<svg width="18" height="18" viewBox="0 0 18 18" fill="none" xmlns="http://www.w3.org/2000/svg">
<path d="M15 6C15 4.4087 14.3679 2.88258 13.2426 1.75736C12.1174 0.632141 10.5913 0 9 0C7.4087 0 5.88258 0.632141 4.75736 1.75736C3.63214 2.88258 3 4.4087 3 6C3 13 0 15 0 15H18C18 15 15 13 15 6Z" fill="#EB5757"/>
<path d="M10.73 17C10.5542 17.3031 10.3019 17.5547 9.99825 17.7295C9.69463 17.9044 9.3504 17.9965 9.00002 17.9965C8.64964 17.9965 8.30541 17.9044 8.00179 17.7295C7.69818 17.5547 7.44583 17.3031 7.27002 17" fill="#EB5757"/>
</svg>
