<svg width="19" height="19" viewBox="0 0 19 19" fill="none" xmlns="http://www.w3.org/2000/svg">
<path d="M9.5 0.75C4.67 0.75 0.75 4.67 0.75 9.5C0.75 14.33 4.67 18.25 9.5 18.25C14.33 18.25 18.25 14.33 18.25 9.5C18.25 4.67 14.33 0.75 9.5 0.75ZM9.5 3.375C10.9525 3.375 12.125 4.5475 12.125 6C12.125 7.4525 10.9525 8.625 9.5 8.625C8.0475 8.625 6.875 7.4525 6.875 6C6.875 4.5475 8.0475 3.375 9.5 3.375ZM9.5 15.8C7.3125 15.8 5.37875 14.68 4.25 12.9825C4.27625 11.2413 7.75 10.2875 9.5 10.2875C11.2413 10.2875 14.7238 11.2413 14.75 12.9825C13.6213 14.68 11.6875 15.8 9.5 15.8Z" fill="#4F4F4F"/>
</svg>
